<?xml version="1.0" encoding="UTF-8"?>
<svg xmlns="http://www.w3.org/2000/svg" xmlns:xlink="http://www.w3.org/1999/xlink" width="100pt" height="100pt" viewBox="0 0 100 100" version="1.1">
<g id="surface6481160">
<path style=" stroke:none;fill-rule:nonzero;fill:rgb(42.352941%,38.823529%,100%);fill-opacity:1;" d="M 87.199219 56.699219 C 88.300781 54.5 89 52.101562 89 49.5 C 89 42.898438 84.800781 37.199219 79 35 C 79 23.398438 69.601562 14 58 14 C 48.199219 14 40 20.699219 37.699219 29.800781 C 36.199219 29.300781 34.699219 29 33 29 C 25.300781 29 19 34.800781 18.101562 42.300781 C 12.898438 43.398438 9 48 9 53.5 C 9 59.898438 14.101562 65 20.5 65 C 20.699219 65 20.898438 65 21 65 C 21 65.199219 21 65.300781 21 65.5 C 21 76.800781 30.199219 86 41.5 86 C 47.898438 86 53.699219 83 57.398438 78.398438 C 59.601562 80.601562 62.601562 82 66 82 C 70.699219 82 74.699219 79.300781 76.699219 75.5 C 77.800781 75.800781 78.898438 76 80 76 C 86.101562 76 91 71.101562 91 65 C 91 61.699219 89.5 58.699219 87.199219 56.699219 Z M 87.199219 56.699219 "/>
<path style=" stroke:none;fill-rule:nonzero;fill:rgb(99.215686%,98.823529%,93.72549%);fill-opacity:1;" d="M 79.898438 36.5 C 79.898438 36.5 83.5 36.5 86 36.5 C 88.5 36.5 90.5 34.5 90.5 32 C 90.5 29.699219 88.699219 27.800781 86.398438 27.5 C 86.398438 27.300781 86.5 27.101562 86.5 27 C 86.5 24.5 84.5 22.5 82 22.5 C 80.601562 22.5 79.300781 23.199219 78.5 24.199219 C 78.398438 21.601562 76.199219 19.5 73.5 19.5 C 70.699219 19.5 68.5 21.699219 68.5 24.5 C 68.5 24.898438 68.601562 25.398438 68.699219 25.800781 C 68 25 67.101562 24.5 66 24.5 C 64.199219 24.5 62.800781 25.800781 62.5 27.601562 C 62.300781 27.601562 62.101562 27.5 62 27.5 C 59.5 27.5 57.5 29.5 57.5 32 C 57.5 34.5 59.5 36.5 62 36.5 C 64.5 36.5 71.5 36.5 71.5 36.5 L 76.898438 36.5 L 76.898438 37 L 79.898438 37 Z M 79.898438 36.5 "/>
<path style=" stroke:none;fill-rule:nonzero;fill:rgb(27.843137%,16.862745%,16.078431%);fill-opacity:1;" d="M 73.5 19 C 70.5 19 68 21.5 68 24.5 C 67.398438 24.101562 66.699219 24 66 24 C 64.199219 24 62.601562 25.300781 62.101562 27 L 62 27 C 59.199219 27 57 29.199219 57 32 C 57 34.800781 59.199219 37 62 37 L 76.898438 37 C 77.199219 37 77.398438 36.800781 77.398438 36.5 C 77.398438 36.199219 77.199219 36 76.898438 36 L 62 36 C 59.800781 36 58 34.199219 58 32 C 58 29.800781 59.800781 28 62 28 C 62.101562 28 62.199219 28 62.300781 28 L 62.398438 28 C 62.398438 28 62.398438 28 62.5 28 C 62.699219 28 63 27.800781 63 27.601562 C 63.199219 26.101562 64.5 25 66 25 C 66.898438 25 67.699219 25.398438 68.300781 26.101562 C 68.398438 26.199219 68.5 26.300781 68.699219 26.300781 C 68.800781 26.300781 68.898438 26.300781 68.898438 26.199219 C 69.101562 26.101562 69.199219 25.898438 69.199219 25.601562 C 69.101562 25.199219 69 24.800781 69 24.398438 C 69 21.898438 71 19.898438 73.5 19.898438 C 75.898438 19.898438 77.800781 21.800781 78 24.199219 C 78 24.398438 78.199219 24.601562 78.300781 24.699219 C 78.398438 24.699219 78.398438 24.699219 78.5 24.699219 C 78.699219 24.699219 78.800781 24.601562 78.898438 24.5 C 79.699219 23.5 80.800781 23 82 23 C 84.199219 23 86 24.800781 86 27 C 86 27.101562 86 27.199219 86 27.300781 L 86 27.398438 C 86 27.5 86 27.699219 86.101562 27.800781 C 86.199219 27.898438 86.300781 28 86.398438 28 C 88.5 28.199219 90 29.898438 90 32 C 90 34.199219 88.199219 36 86 36 L 79.898438 36 C 79.601562 36 79.398438 36.199219 79.398438 36.5 C 79.398438 36.800781 79.601562 37 79.898438 37 L 86 37 C 88.800781 37 91 34.800781 91 32 C 91 29.601562 89.300781 27.601562 87 27.101562 L 87 27 C 87 24.199219 84.800781 22 82 22 C 80.800781 22 79.699219 22.398438 78.800781 23.199219 C 78.199219 20.800781 76.101562 19 73.5 19 Z M 73.5 19 "/>
<path style=" stroke:none;fill-rule:nonzero;fill:rgb(27.843137%,16.862745%,16.078431%);fill-opacity:1;" d="M 72 26 C 70.601562 26 69.398438 27 69.101562 28.300781 C 68.699219 28.101562 68.300781 28 67.898438 28 C 66.699219 28 65.699219 28.898438 65.5 30.101562 C 65.300781 30.101562 65.101562 30 64.898438 30 C 63.398438 30 62.101562 31.199219 62 32.699219 C 62 32.800781 62.101562 33 62.199219 33 C 62.300781 33 62.398438 32.898438 62.398438 32.800781 C 62.5 31.5 63.601562 30.5 64.800781 30.5 C 65 30.5 65.300781 30.5 65.5 30.601562 C 65.5 30.601562 65.5 30.601562 65.601562 30.601562 C 65.699219 30.601562 65.699219 30.601562 65.800781 30.5 C 65.898438 30.5 65.898438 30.398438 65.898438 30.300781 C 65.898438 29.300781 66.699219 28.398438 67.800781 28.398438 C 68.199219 28.398438 68.699219 28.601562 69 28.898438 C 69 28.898438 69.101562 29 69.199219 29 L 69.300781 29 C 69.398438 29 69.398438 28.898438 69.5 28.800781 C 69.601562 27.5 70.699219 26.5 72 26.5 C 72.199219 26.5 72.398438 26.5 72.699219 26.601562 C 72.699219 26.601562 72.699219 26.601562 72.800781 26.601562 C 72.898438 26.601562 73 26.5 73 26.398438 C 73 26.300781 73 26.101562 72.800781 26.101562 C 72.5 26 72.300781 26 72 26 Z M 85.898438 27.5 C 84.601562 27.5 83.398438 28.398438 83 29.699219 C 83 29.800781 83 30 83.199219 30 C 83.199219 30 83.199219 30 83.300781 30 C 83.398438 30 83.5 29.898438 83.5 29.800781 C 83.800781 28.699219 84.800781 28 85.898438 28 C 86 28 86.101562 28 86.199219 28 C 86.300781 28 86.398438 27.898438 86.398438 27.800781 C 86.398438 27.699219 86.300781 27.5 86.199219 27.5 C 86.199219 27.5 86 27.5 85.898438 27.5 Z M 85.898438 27.5 "/>
<path style=" stroke:none;fill-rule:nonzero;fill:rgb(100%,100%,100%);fill-opacity:1;" d="M 15.398438 51 L 5.5 51 C 5.199219 51 5 50.800781 5 50.5 C 5 50.199219 5.199219 50 5.5 50 L 15.398438 50 C 15.699219 50 15.898438 50.199219 15.898438 50.5 C 15.898438 50.800781 15.699219 51 15.398438 51 Z M 18.5 51 L 17.5 51 C 17.199219 51 17 50.800781 17 50.5 C 17 50.199219 17.199219 50 17.5 50 L 18.5 50 C 18.800781 50 19 50.199219 19 50.5 C 19 50.800781 18.800781 51 18.5 51 Z M 23.5 53 L 14.5 53 C 14.199219 53 14 52.800781 14 52.5 C 14 52.199219 14.199219 52 14.5 52 L 23.5 52 C 23.800781 52 24 52.199219 24 52.5 C 24 52.800781 23.800781 53 23.5 53 Z M 12.5 53 L 11.5 53 C 11.199219 53 11 52.800781 11 52.5 C 11 52.199219 11.199219 52 11.5 52 L 12.5 52 C 12.800781 52 13 52.199219 13 52.5 C 13 52.800781 12.800781 53 12.5 53 Z M 9.5 53 L 7.5 53 C 7.199219 53 7 52.800781 7 52.5 C 7 52.199219 7.199219 52 7.5 52 L 9.5 52 C 9.800781 52 10 52.199219 10 52.5 C 10 52.800781 9.800781 53 9.5 53 Z M 15.5 55 L 13.5 55 C 13.199219 55 13 54.800781 13 54.5 C 13 54.199219 13.199219 54 13.5 54 L 15.5 54 C 15.800781 54 16 54.199219 16 54.5 C 16 54.800781 15.800781 55 15.5 55 Z M 18.5 46 C 18.300781 46 17.699219 46 17.5 46 C 17.199219 46 17 46.199219 17 46.5 C 17 46.800781 17.199219 47 17.5 47 C 17.699219 47 18.300781 47 18.5 47 C 18.800781 47 19 46.800781 19 46.5 C 19 46.199219 18.800781 46 18.5 46 Z M 18.5 48 C 18.300781 48 13.699219 48 13.5 48 C 13.199219 48 13 48.199219 13 48.5 C 13 48.800781 13.199219 49 13.5 49 C 13.699219 49 18.300781 49 18.5 49 C 18.800781 49 19 48.800781 19 48.5 C 19 48.199219 18.800781 48 18.5 48 Z M 23.5 50 C 23.300781 50 20.699219 50 20.5 50 C 20.199219 50 20 50.199219 20 50.5 C 20 50.800781 20.199219 51 20.5 51 C 20.699219 51 23.300781 51 23.5 51 C 23.800781 51 24 50.800781 24 50.5 C 24 50.199219 23.800781 50 23.5 50 Z M 86.5 61 L 76.5 61 C 76.199219 61 76 60.800781 76 60.5 C 76 60.199219 76.199219 60 76.5 60 L 86.5 60 C 86.800781 60 87 60.199219 87 60.5 C 87 60.800781 86.800781 61 86.5 61 Z M 90.5 61 L 88.5 61 C 88.199219 61 88 60.800781 88 60.5 C 88 60.199219 88.199219 60 88.5 60 L 90.5 60 C 90.800781 60 91 60.199219 91 60.5 C 91 60.800781 90.800781 61 90.5 61 Z M 95.5 63 L 85.5 63 C 85.199219 63 85 62.800781 85 62.5 C 85 62.199219 85.199219 62 85.5 62 L 95.5 62 C 95.800781 62 96 62.199219 96 62.5 C 96 62.800781 95.800781 63 95.5 63 Z M 83.5 63 L 82.5 63 C 82.199219 63 82 62.800781 82 62.5 C 82 62.199219 82.199219 62 82.5 62 L 83.5 62 C 83.800781 62 84 62.199219 84 62.5 C 84 62.800781 83.800781 63 83.5 63 Z M 80.398438 63 L 78.5 63 C 78.199219 63 78 62.800781 78 62.5 C 78 62.199219 78.199219 62 78.5 62 L 80.398438 62 C 80.699219 62 80.898438 62.199219 80.898438 62.5 C 80.898438 62.800781 80.699219 63 80.398438 63 Z M 89.5 59 L 84.5 59 C 84.199219 59 84 58.800781 84 58.5 C 84 58.199219 84.199219 58 84.5 58 L 89.5 58 C 89.800781 58 90 58.199219 90 58.5 C 90 58.800781 89.800781 59 89.5 59 Z M 86.5 65 L 84.5 65 C 84.199219 65 84 64.800781 84 64.5 C 84 64.199219 84.199219 64 84.5 64 L 86.5 64 C 86.800781 64 87 64.199219 87 64.5 C 87 64.800781 86.800781 65 86.5 65 Z M 86.5 65 "/>
<path style=" stroke:none;fill-rule:nonzero;fill:rgb(82.745098%,81.568627%,100%);fill-opacity:1;" d="M 29.699219 30.699219 L 73.300781 30.699219 L 73.300781 38.300781 L 29.699219 38.300781 Z M 29.699219 30.699219 "/>
<path style=" stroke:none;fill-rule:nonzero;fill:rgb(27.843137%,16.862745%,16.078431%);fill-opacity:1;" d="M 72.601562 31.398438 L 72.601562 37.601562 L 30.398438 37.601562 L 30.398438 31.398438 L 72.601562 31.398438 M 74 30 L 29 30 L 29 39 L 74 39 Z M 74 30 "/>
<path style=" stroke:none;fill-rule:nonzero;fill:rgb(82.745098%,81.568627%,100%);fill-opacity:1;" d="M 29.699219 45.699219 L 73.300781 45.699219 L 73.300781 53.300781 L 29.699219 53.300781 Z M 29.699219 45.699219 "/>
<path style=" stroke:none;fill-rule:nonzero;fill:rgb(27.843137%,16.862745%,16.078431%);fill-opacity:1;" d="M 72.601562 46.398438 L 72.601562 52.601562 L 30.398438 52.601562 L 30.398438 46.398438 L 72.601562 46.398438 M 74 45 L 29 45 L 29 54 L 74 54 Z M 74 45 "/>
<path style=" stroke:none;fill-rule:nonzero;fill:rgb(82.745098%,81.568627%,100%);fill-opacity:1;" d="M 29.699219 60.699219 L 73.300781 60.699219 L 73.300781 68.300781 L 29.699219 68.300781 Z M 29.699219 60.699219 "/>
<path style=" stroke:none;fill-rule:nonzero;fill:rgb(27.843137%,16.862745%,16.078431%);fill-opacity:1;" d="M 72.601562 61.398438 L 72.601562 67.601562 L 30.398438 67.601562 L 30.398438 61.398438 L 72.601562 61.398438 M 74 60 L 29 60 L 29 69 L 74 69 Z M 74 60 "/>
<path style=" stroke:none;fill-rule:nonzero;fill:rgb(27.843137%,16.862745%,16.078431%);fill-opacity:1;" d="M 59.5 51 L 29.5 51 C 29.199219 51 29 50.800781 29 50.5 C 29 50.199219 29.199219 50 29.5 50 L 59.5 50 C 59.800781 50 60 50.199219 60 50.5 C 60 50.800781 59.800781 51 59.5 51 Z M 59.5 51 "/>
<path style=" stroke:none;fill-rule:nonzero;fill:rgb(27.843137%,16.862745%,16.078431%);fill-opacity:1;" d="M 69.601562 51 L 68.699219 51 C 68.398438 51 68.199219 50.800781 68.199219 50.5 C 68.199219 50.199219 68.398438 50 68.699219 50 L 69.601562 50 C 69.898438 50 70.101562 50.199219 70.101562 50.5 C 70.101562 50.800781 69.898438 51 69.601562 51 Z M 69.601562 51 "/>
<path style=" stroke:none;fill-rule:nonzero;fill:rgb(27.843137%,16.862745%,16.078431%);fill-opacity:1;" d="M 72.5 66 L 33.5 66 C 33.199219 66 33 65.800781 33 65.5 C 33 65.199219 33.199219 65 33.5 65 L 72.5 65 C 72.800781 65 73 65.199219 73 65.5 C 73 65.800781 72.800781 66 72.5 66 Z M 72.5 66 "/>
<path style=" stroke:none;fill-rule:nonzero;fill:rgb(27.843137%,16.862745%,16.078431%);fill-opacity:1;" d="M 31.398438 69 L 30.5 69 C 30.199219 69 30 68.800781 30 68.5 C 30 68.199219 30.199219 68 30.5 68 L 31.398438 68 C 31.699219 68 31.898438 68.199219 31.898438 68.5 C 31.898438 68.800781 31.699219 69 31.398438 69 Z M 31.398438 69 "/>
<path style=" stroke:none;fill-rule:nonzero;fill:rgb(27.843137%,16.862745%,16.078431%);fill-opacity:1;" d="M 65.5 35 L 29.5 35 C 29.199219 35 29 34.800781 29 34.5 C 29 34.199219 29.199219 34 29.5 34 L 65.5 34 C 65.800781 34 66 34.199219 66 34.5 C 66 34.800781 65.800781 35 65.5 35 Z M 65.5 35 "/>
<path style=" stroke:none;fill-rule:nonzero;fill:rgb(27.843137%,16.862745%,16.078431%);fill-opacity:1;" d="M 69.5 35 L 68.601562 35 C 68.300781 35 68.101562 34.800781 68.101562 34.5 C 68.101562 34.199219 68.300781 34 68.601562 34 L 69.5 34 C 69.800781 34 70 34.199219 70 34.5 C 70 34.800781 69.800781 35 69.5 35 Z M 69.5 35 "/>
<path style=" stroke:none;fill-rule:nonzero;fill:rgb(27.843137%,16.862745%,16.078431%);fill-opacity:1;" d="M 65.898438 51 L 62.5 51 C 62.199219 51 62 50.800781 62 50.5 C 62 50.199219 62.199219 50 62.5 50 L 65.898438 50 C 66.199219 50 66.398438 50.199219 66.398438 50.5 C 66.398438 50.800781 66.199219 51 65.898438 51 Z M 65.898438 51 "/>
<path style=" stroke:none;fill-rule:nonzero;fill:rgb(99.215686%,98.823529%,93.72549%);fill-opacity:1;" d="M 37.5 76.5 C 37.5 76.5 39.101562 76.5 41 76.5 C 42.898438 76.5 44.5 74.898438 44.5 73 C 44.5 71.199219 43.199219 69.800781 41.398438 69.5 C 41.398438 69.300781 41.5 69.101562 41.5 69 C 41.5 67.101562 39.898438 65.5 38 65.5 C 37 65.5 36 66 35.398438 66.699219 C 35 64.898438 33.398438 63.5 31.5 63.5 C 29.300781 63.5 27.5 65.300781 27.5 67.5 C 27.5 67.699219 27.5 67.898438 27.601562 68.101562 C 27.199219 67.800781 26.601562 67.5 26 67.5 C 24.800781 67.5 23.800781 68.398438 23.5 69.601562 C 23.300781 69.601562 23.101562 69.5 23 69.5 C 21.101562 69.5 19.5 71.101562 19.5 73 C 19.5 74.898438 21.101562 76.5 23 76.5 C 24.898438 76.5 30.5 76.5 30.5 76.5 L 30.5 77 L 37.5 77 Z M 37.5 76.5 "/>
<path style=" stroke:none;fill-rule:nonzero;fill:rgb(27.843137%,16.862745%,16.078431%);fill-opacity:1;" d="M 39.300781 72 C 39.199219 72 39 71.898438 39 71.699219 C 39 70.5 40 69.5 41.199219 69.5 C 41.199219 69.5 41.898438 69.5 42.398438 69.601562 C 42.5 69.601562 42.601562 69.800781 42.601562 69.898438 C 42.601562 70 42.398438 70.101562 42.300781 70.101562 C 41.898438 70 41.199219 70 41.199219 70 C 40.300781 70 39.5 70.800781 39.5 71.699219 C 39.5 71.898438 39.398438 72 39.300781 72 Z M 32.5 76 C 32.222656 76 32 76.222656 32 76.5 C 32 76.777344 32.222656 77 32.5 77 C 32.777344 77 33 76.777344 33 76.5 C 33 76.222656 32.777344 76 32.5 76 Z M 32.5 76 "/>
<path style=" stroke:none;fill-rule:nonzero;fill:rgb(27.843137%,16.862745%,16.078431%);fill-opacity:1;" d="M 41 77 L 37.5 77 C 37.199219 77 37 76.800781 37 76.5 C 37 76.199219 37.199219 76 37.5 76 L 41 76 C 42.699219 76 44 74.699219 44 73 C 44 71.5 42.898438 70.199219 41.398438 70 C 41.300781 70 41.101562 69.898438 41.101562 69.800781 C 41.101562 69.699219 41 69.601562 41 69.398438 C 41 69.199219 41 69.101562 41 68.898438 C 41 67.199219 39.699219 65.898438 38 65.898438 C 37.199219 65.898438 36.398438 66.300781 35.800781 66.898438 C 35.699219 67 35.5 67.101562 35.300781 67 C 35.101562 67 35 66.800781 34.898438 66.601562 C 34.601562 65 33.101562 63.800781 31.5 63.800781 C 29.601562 63.800781 28 65.398438 28 67.300781 C 28 67.398438 28 67.601562 28 67.699219 C 28 67.898438 27.898438 68.101562 27.800781 68.199219 C 27.699219 68.300781 27.398438 68.300781 27.199219 68.199219 C 26.898438 68.199219 26.398438 68 26 68 C 25 68 24.199219 68.699219 24 69.601562 C 24 69.898438 23.699219 70 23.398438 70 C 23.199219 70 23.101562 70 22.898438 70 C 21.199219 70 19.898438 71.300781 19.898438 73 C 19.898438 74.699219 21.199219 76 22.898438 76 L 30.398438 76 C 30.699219 76 30.898438 76.199219 30.898438 76.5 C 30.898438 76.800781 30.800781 77 30.5 77 L 23 77 C 20.800781 77 19 75.199219 19 73 C 19 70.800781 20.800781 69 23 69 C 23.101562 69 23.101562 69 23.199219 69 C 23.601562 67.800781 24.699219 67 26 67 C 26.300781 67 26.699219 67.101562 27 67.199219 C 27.199219 64.898438 29.101562 63 31.5 63 C 33.300781 63 35 64.101562 35.699219 65.800781 C 36.398438 65.300781 37.199219 65 38 65 C 40.199219 65 42 66.800781 42 69 L 42 69.101562 C 43.699219 69.5 45 71.101562 45 73 C 45 75.199219 43.199219 77 41 77 Z M 41 77 "/>
<path style=" stroke:none;fill-rule:nonzero;fill:rgb(27.843137%,16.862745%,16.078431%);fill-opacity:1;" d="M 35.5 76 C 35.300781 76 34.699219 76 34.5 76 C 34.199219 76 34 76.199219 34 76.5 C 34 76.800781 34.199219 77 34.5 77 C 34.699219 77 35.300781 77 35.5 77 C 35.800781 77 36 76.800781 36 76.5 C 36 76.199219 35.800781 76 35.5 76 Z M 35.5 76 "/>
</g>
</svg>
